<?xml version="1.0" standalone="no"?>
<!DOCTYPE svg PUBLIC "-//W3C//DTD SVG 20010904//EN"
 "http://www.w3.org/TR/2001/REC-SVG-20010904/DTD/svg10.dtd">
<svg version="1.0" xmlns="http://www.w3.org/2000/svg"
 width="847.000000pt" height="847.000000pt" viewBox="0 0 847.000000 847.000000"
 preserveAspectRatio="xMidYMid meet">
<metadata>
Created by potrace 1.11, written by Peter Selinger 2001-2013
</metadata>
<g transform="translate(0.000000,847.000000) scale(0.100000,-0.100000)"
fill="#000000" stroke="none">
<path d="M7166 8228 c-9 -12 -16 -31 -16 -42 0 -11 -18 -46 -40 -77 -22 -32
-40 -62 -40 -67 0 -16 45 -41 59 -33 18 12 121 -7 168 -31 90 -45 168 -156
196 -279 11 -45 15 -222 6 -239 -1 -3 -3 -9 -4 -15 -2 -18 -18 -110 -20 -120
-1 -5 -5 -36 -9 -67 -4 -32 -12 -58 -17 -58 -5 0 -9 -6 -9 -14 0 -7 -15 -42
-33 -77 -18 -35 -39 -86 -47 -114 -7 -27 -22 -62 -32 -77 -10 -14 -18 -33 -18
-42 0 -9 -4 -16 -8 -16 -10 0 -82 -143 -82 -162 0 -20 -37 -58 -58 -59 -9 0
-87 -2 -172 -4 -166 -4 -233 -9 -250 -20 -6 -4 -46 10 -88 31 -93 45 -175 49
-289 15 -18 -5 -33 -8 -33 -6 0 18 -239 -114 -248 -137 -2 -4 -8 -8 -13 -8
-18 0 -147 -124 -200 -192 -19 -24 -36 -45 -39 -48 -6 -5 -97 -138 -128 -185
-6 -11 -18 -31 -24 -45 -7 -14 -15 -27 -19 -30 -8 -7 -79 -160 -79 -171 0 -5
-5 -9 -11 -9 -5 0 -8 -4 -5 -8 2 -4 -4 -27 -15 -51 -10 -24 -19 -49 -19 -57 0
-8 -4 -14 -8 -14 -4 0 -15 -24 -24 -52 -9 -29 -22 -66 -29 -83 -7 -16 -13 -32
-14 -35 -1 -3 -7 -18 -13 -33 -7 -16 -12 -31 -12 -34 0 -26 -145 -312 -228
-448 -47 -77 -90 -150 -96 -162 -6 -13 -14 -23 -18 -23 -5 0 -8 -6 -8 -13 0
-8 -9 -24 -20 -37 -11 -13 -20 -29 -20 -37 0 -7 -3 -13 -7 -13 -5 0 -13 -10
-19 -23 -84 -170 -132 -259 -158 -292 -52 -68 -173 -182 -293 -280 -46 -37
-229 -220 -246 -245 -51 -76 -64 -98 -76 -127 -7 -18 -24 -44 -37 -58 -13 -14
-21 -25 -17 -25 3 0 -8 -15 -23 -33 -16 -18 -45 -53 -64 -77 -45 -58 -269
-282 -340 -340 -30 -25 -62 -53 -72 -62 -10 -10 -18 -15 -18 -12 0 4 -20 -10
-44 -30 -24 -20 -48 -36 -51 -36 -9 0 -122 -116 -161 -165 -16 -21 -34 -43
-39 -49 -6 -6 -35 -42 -65 -81 -30 -38 -57 -72 -60 -75 -3 -3 -41 -50 -85
-105 -165 -208 -293 -351 -380 -424 -42 -35 -195 -132 -195 -124 0 5 -4 3 -8
-2 -6 -9 -40 -27 -147 -76 -35 -16 -189 -70 -213 -75 -13 -3 -44 -12 -70 -21
-26 -8 -54 -17 -62 -18 -8 -2 -15 -4 -15 -5 0 -1 -11 -3 -24 -6 -23 -4 -141
-62 -151 -74 -3 -4 -45 -32 -95 -64 -49 -32 -91 -62 -93 -67 -2 -5 -8 -9 -12
-9 -5 0 -38 -21 -73 -48 -36 -26 -75 -54 -87 -62 -19 -13 -40 -29 -75 -58 -26
-21 -315 -222 -319 -222 -3 0 -32 -17 -65 -38 -32 -22 -74 -45 -93 -52 -18 -8
-35 -16 -38 -20 -10 -11 -187 -127 -240 -157 -76 -42 -123 -56 -205 -58 l-70
-2 -1 -54 c-3 -141 85 -319 223 -450 120 -114 224 -166 383 -193 14 -3 25 -5
25 -6 0 -9 186 -24 300 -24 88 0 250 11 294 19 9 1 36 6 61 10 24 4 65 16 90
27 42 19 83 33 120 43 177 46 230 58 330 70 30 4 64 9 75 11 23 5 98 12 175
18 30 2 80 7 110 10 66 7 162 15 248 21 63 5 108 10 172 20 19 2 52 7 72 9 20
2 72 21 115 41 43 20 83 38 88 39 6 2 24 9 40 16 72 31 94 40 160 65 39 15 82
33 96 41 14 7 28 11 31 8 3 -2 11 2 18 11 7 8 18 15 25 15 7 0 50 21 96 47 77
43 103 60 134 91 8 6 18 12 24 12 6 0 11 5 11 10 0 6 7 10 15 10 8 0 15 4 15
8 0 4 23 26 52 47 28 22 68 55 87 74 20 18 54 48 76 67 22 18 65 57 96 86 30
29 95 89 143 133 49 44 106 97 127 117 22 20 56 49 76 65 19 15 45 37 57 47
11 10 66 52 121 93 55 41 130 101 166 135 36 33 74 65 85 71 10 6 21 14 24 18
3 4 24 17 48 29 23 12 45 26 48 31 3 5 26 20 52 34 26 13 60 35 76 49 16 14
32 26 36 26 4 0 35 30 71 66 121 125 138 141 189 185 50 42 83 69 105 86 78
60 205 165 222 184 92 102 189 189 211 189 6 0 12 4 14 8 2 4 50 37 108 72
135 82 191 124 266 196 78 76 112 104 123 104 5 0 11 4 13 9 4 9 129 91 278
181 153 92 254 167 351 262 47 45 107 104 135 129 119 110 334 378 334 418 0
5 7 14 15 21 8 6 14 15 13 18 -1 4 10 30 24 57 24 47 47 108 49 130 0 6 4 15
8 20 5 6 11 24 15 40 4 17 21 75 39 130 17 55 32 103 33 108 1 4 3 9 4 12 1 3
3 8 4 13 1 4 12 50 25 102 13 52 25 106 27 120 2 14 6 41 9 60 8 43 8 193 1
240 -15 99 -77 226 -135 280 -16 15 -33 45 -41 75 -7 28 -21 69 -31 92 -10 22
-20 54 -22 70 -10 59 -39 124 -88 195 -38 56 -51 85 -54 119 -3 38 -8 64 -30
149 -2 8 -4 15 -5 15 -2 0 -12 43 -25 104 -2 13 -7 26 -10 29 -3 3 6 20 20 38
14 18 25 40 25 48 0 9 4 16 8 16 5 0 9 6 9 13 0 6 4 39 8 72 4 33 9 71 11 85
8 67 54 208 77 238 5 6 7 12 3 12 -3 0 3 24 14 53 36 100 49 171 50 282 0 61
3 133 6 160 12 114 11 174 -5 250 -27 125 -62 218 -103 270 -5 6 -22 28 -39
50 -76 100 -256 267 -284 265 -17 -2 -101 43 -112 60 -32 45 -95 60 -117 28z"/>
</g>
</svg>
